<mxfile host="app.diagrams.net" modified="2024-01-30T22:41:12.043Z" agent="Mozilla/5.0 (Windows NT 10.0; Win64; x64) AppleWebKit/537.36 (KHTML, like Gecko) Chrome/121.0.0.0 Safari/537.36" etag="KTddB5cOODtSPI_FHE7f" version="23.0.2" type="github">
  <diagram id="C5RBs43oDa-KdzZeNtuy" name="Page-1">
    <mxGraphModel dx="954" dy="600" grid="1" gridSize="10" guides="1" tooltips="1" connect="1" arrows="1" fold="1" page="1" pageScale="1" pageWidth="1169" pageHeight="1654" math="0" shadow="0">
      <root>
        <mxCell id="WIyWlLk6GJQsqaUBKTNV-0" />
        <mxCell id="WIyWlLk6GJQsqaUBKTNV-1" parent="WIyWlLk6GJQsqaUBKTNV-0" />
        <mxCell id="CkBGdMIkpj1YnCWoiwxH-4" style="edgeStyle=orthogonalEdgeStyle;rounded=0;orthogonalLoop=1;jettySize=auto;html=1;exitX=0.5;exitY=1;exitDx=0;exitDy=0;" edge="1" parent="WIyWlLk6GJQsqaUBKTNV-1" source="CkBGdMIkpj1YnCWoiwxH-0">
          <mxGeometry relative="1" as="geometry">
            <mxPoint x="400" y="110" as="targetPoint" />
          </mxGeometry>
        </mxCell>
        <mxCell id="CkBGdMIkpj1YnCWoiwxH-0" value="Start" style="ellipse;whiteSpace=wrap;html=1;fillColor=#e1d5e7;strokeColor=#9673a6;" vertex="1" parent="WIyWlLk6GJQsqaUBKTNV-1">
          <mxGeometry x="340" y="10" width="120" height="80" as="geometry" />
        </mxCell>
        <mxCell id="CkBGdMIkpj1YnCWoiwxH-56" style="edgeStyle=orthogonalEdgeStyle;rounded=0;orthogonalLoop=1;jettySize=auto;html=1;exitX=0.5;exitY=1;exitDx=0;exitDy=0;entryX=0.5;entryY=0;entryDx=0;entryDy=0;" edge="1" parent="WIyWlLk6GJQsqaUBKTNV-1" source="CkBGdMIkpj1YnCWoiwxH-3" target="CkBGdMIkpj1YnCWoiwxH-55">
          <mxGeometry relative="1" as="geometry" />
        </mxCell>
        <mxCell id="CkBGdMIkpj1YnCWoiwxH-3" value="input amount&lt;br&gt;of bet" style="shape=parallelogram;perimeter=parallelogramPerimeter;whiteSpace=wrap;html=1;fixedSize=1;fillColor=#dae8fc;strokeColor=#6c8ebf;" vertex="1" parent="WIyWlLk6GJQsqaUBKTNV-1">
          <mxGeometry x="340" y="110" width="120" height="60" as="geometry" />
        </mxCell>
        <mxCell id="CkBGdMIkpj1YnCWoiwxH-18" style="edgeStyle=orthogonalEdgeStyle;rounded=0;orthogonalLoop=1;jettySize=auto;html=1;exitX=0;exitY=0.5;exitDx=0;exitDy=0;" edge="1" parent="WIyWlLk6GJQsqaUBKTNV-1">
          <mxGeometry relative="1" as="geometry">
            <mxPoint x="260" y="300" as="targetPoint" />
            <mxPoint x="340" y="300" as="sourcePoint" />
          </mxGeometry>
        </mxCell>
        <mxCell id="CkBGdMIkpj1YnCWoiwxH-23" style="edgeStyle=orthogonalEdgeStyle;rounded=0;orthogonalLoop=1;jettySize=auto;html=1;exitX=1;exitY=0.5;exitDx=0;exitDy=0;" edge="1" parent="WIyWlLk6GJQsqaUBKTNV-1" target="CkBGdMIkpj1YnCWoiwxH-20">
          <mxGeometry relative="1" as="geometry">
            <mxPoint x="460" y="300" as="sourcePoint" />
          </mxGeometry>
        </mxCell>
        <mxCell id="CkBGdMIkpj1YnCWoiwxH-44" style="edgeStyle=orthogonalEdgeStyle;rounded=0;orthogonalLoop=1;jettySize=auto;html=1;exitX=0.5;exitY=1;exitDx=0;exitDy=0;entryX=0;entryY=0.5;entryDx=0;entryDy=0;" edge="1" parent="WIyWlLk6GJQsqaUBKTNV-1" source="CkBGdMIkpj1YnCWoiwxH-7" target="CkBGdMIkpj1YnCWoiwxH-33">
          <mxGeometry relative="1" as="geometry" />
        </mxCell>
        <mxCell id="CkBGdMIkpj1YnCWoiwxH-7" value="&lt;font face=&quot;Helvetica&quot;&gt;&lt;br&gt;&lt;span style=&quot;font-size: 14px; font-style: normal; font-variant-ligatures: normal; font-variant-caps: normal; font-weight: 400; letter-spacing: normal; orphans: 2; text-align: left; text-indent: 0px; text-transform: none; widows: 2; word-spacing: 0px; -webkit-text-stroke-width: 0px; text-decoration-thickness: initial; text-decoration-style: initial; text-decoration-color: initial; float: none; display: inline !important;&quot;&gt;If player&#39;s hand has a total of 17 or higher:&lt;br&gt;    Stand&lt;/span&gt;&lt;/font&gt;" style="rounded=0;whiteSpace=wrap;html=1;fillColor=#fff2cc;strokeColor=#d6b656;" vertex="1" parent="WIyWlLk6GJQsqaUBKTNV-1">
          <mxGeometry x="100" y="490" width="150" height="70" as="geometry" />
        </mxCell>
        <mxCell id="CkBGdMIkpj1YnCWoiwxH-45" style="edgeStyle=orthogonalEdgeStyle;rounded=0;orthogonalLoop=1;jettySize=auto;html=1;exitX=0.5;exitY=1;exitDx=0;exitDy=0;entryX=1;entryY=0.5;entryDx=0;entryDy=0;" edge="1" parent="WIyWlLk6GJQsqaUBKTNV-1" source="CkBGdMIkpj1YnCWoiwxH-9" target="CkBGdMIkpj1YnCWoiwxH-33">
          <mxGeometry relative="1" as="geometry" />
        </mxCell>
        <mxCell id="CkBGdMIkpj1YnCWoiwxH-9" value="&lt;font face=&quot;Helvetica&quot;&gt;&lt;span style=&quot;font-size: 14px; font-style: normal; font-variant-ligatures: normal; font-variant-caps: normal; font-weight: 400; letter-spacing: normal; orphans: 2; text-align: left; text-indent: 0px; text-transform: none; widows: 2; word-spacing: 0px; -webkit-text-stroke-width: 0px; text-decoration-thickness: initial; text-decoration-style: initial; text-decoration-color: initial; float: none; display: inline !important;&quot;&gt;if 16 or less keep hitting until you get 17&lt;br&gt;&lt;/span&gt;&lt;/font&gt;" style="rounded=0;whiteSpace=wrap;html=1;fillColor=#fff2cc;strokeColor=#d6b656;" vertex="1" parent="WIyWlLk6GJQsqaUBKTNV-1">
          <mxGeometry x="530" y="490" width="150" height="70" as="geometry" />
        </mxCell>
        <mxCell id="CkBGdMIkpj1YnCWoiwxH-16" style="edgeStyle=orthogonalEdgeStyle;rounded=0;orthogonalLoop=1;jettySize=auto;html=1;exitX=0;exitY=0.5;exitDx=0;exitDy=0;entryX=0.5;entryY=0;entryDx=0;entryDy=0;" edge="1" parent="WIyWlLk6GJQsqaUBKTNV-1" source="CkBGdMIkpj1YnCWoiwxH-13" target="CkBGdMIkpj1YnCWoiwxH-7">
          <mxGeometry relative="1" as="geometry" />
        </mxCell>
        <mxCell id="CkBGdMIkpj1YnCWoiwxH-13" value="dealer&#39;s upcard&lt;br&gt;is an ace" style="rhombus;whiteSpace=wrap;html=1;fillColor=#d5e8d4;strokeColor=#82b366;" vertex="1" parent="WIyWlLk6GJQsqaUBKTNV-1">
          <mxGeometry x="343.75" y="470" width="112.5" height="100" as="geometry" />
        </mxCell>
        <mxCell id="CkBGdMIkpj1YnCWoiwxH-17" style="edgeStyle=orthogonalEdgeStyle;rounded=0;orthogonalLoop=1;jettySize=auto;html=1;exitX=1;exitY=0.5;exitDx=0;exitDy=0;entryX=0.56;entryY=-0.014;entryDx=0;entryDy=0;entryPerimeter=0;" edge="1" parent="WIyWlLk6GJQsqaUBKTNV-1" source="CkBGdMIkpj1YnCWoiwxH-13" target="CkBGdMIkpj1YnCWoiwxH-9">
          <mxGeometry relative="1" as="geometry" />
        </mxCell>
        <mxCell id="CkBGdMIkpj1YnCWoiwxH-53" style="edgeStyle=orthogonalEdgeStyle;rounded=0;orthogonalLoop=1;jettySize=auto;html=1;exitX=0.5;exitY=1;exitDx=0;exitDy=0;entryX=0;entryY=0.5;entryDx=0;entryDy=0;" edge="1" parent="WIyWlLk6GJQsqaUBKTNV-1" source="CkBGdMIkpj1YnCWoiwxH-19" target="CkBGdMIkpj1YnCWoiwxH-25">
          <mxGeometry relative="1" as="geometry" />
        </mxCell>
        <mxCell id="CkBGdMIkpj1YnCWoiwxH-19" value="&lt;font face=&quot;Helvetica&quot;&gt;&lt;br&gt;&lt;span style=&quot;font-size: 14px; font-style: normal; font-variant-ligatures: normal; font-variant-caps: normal; font-weight: 400; letter-spacing: normal; orphans: 2; text-align: left; text-indent: 0px; text-transform: none; widows: 2; word-spacing: 0px; -webkit-text-stroke-width: 0px; text-decoration-thickness: initial; text-decoration-style: initial; text-decoration-color: initial; float: none; display: inline !important;&quot;&gt;If player&#39;s hand has a total of 17 or higher&lt;br&gt;&lt;/span&gt;&lt;/font&gt;" style="rounded=0;whiteSpace=wrap;html=1;fillColor=#fff2cc;strokeColor=#d6b656;" vertex="1" parent="WIyWlLk6GJQsqaUBKTNV-1">
          <mxGeometry x="110" y="265" width="150" height="70" as="geometry" />
        </mxCell>
        <mxCell id="CkBGdMIkpj1YnCWoiwxH-54" style="edgeStyle=orthogonalEdgeStyle;rounded=0;orthogonalLoop=1;jettySize=auto;html=1;exitX=0.5;exitY=1;exitDx=0;exitDy=0;entryX=1;entryY=0.5;entryDx=0;entryDy=0;" edge="1" parent="WIyWlLk6GJQsqaUBKTNV-1" source="CkBGdMIkpj1YnCWoiwxH-20" target="CkBGdMIkpj1YnCWoiwxH-25">
          <mxGeometry relative="1" as="geometry" />
        </mxCell>
        <mxCell id="CkBGdMIkpj1YnCWoiwxH-20" value="&lt;font face=&quot;Helvetica&quot;&gt;&lt;br&gt;&lt;span style=&quot;font-size: 14px; font-style: normal; font-variant-ligatures: normal; font-variant-caps: normal; font-weight: 400; letter-spacing: normal; orphans: 2; text-align: left; text-indent: 0px; text-transform: none; widows: 2; word-spacing: 0px; -webkit-text-stroke-width: 0px; text-decoration-thickness: initial; text-decoration-style: initial; text-decoration-color: initial; float: none; display: inline !important;&quot;&gt;If player&#39;s hand has a total of 16 or less: Hit&lt;br&gt;&lt;/span&gt;&lt;/font&gt;" style="rounded=0;whiteSpace=wrap;html=1;fillColor=#fff2cc;strokeColor=#d6b656;" vertex="1" parent="WIyWlLk6GJQsqaUBKTNV-1">
          <mxGeometry x="520" y="265" width="150" height="70" as="geometry" />
        </mxCell>
        <mxCell id="CkBGdMIkpj1YnCWoiwxH-28" style="edgeStyle=orthogonalEdgeStyle;rounded=0;orthogonalLoop=1;jettySize=auto;html=1;exitX=0.5;exitY=1;exitDx=0;exitDy=0;entryX=0.5;entryY=0;entryDx=0;entryDy=0;" edge="1" parent="WIyWlLk6GJQsqaUBKTNV-1" source="CkBGdMIkpj1YnCWoiwxH-25" target="CkBGdMIkpj1YnCWoiwxH-13">
          <mxGeometry relative="1" as="geometry" />
        </mxCell>
        <mxCell id="CkBGdMIkpj1YnCWoiwxH-25" value="next round" style="rounded=0;whiteSpace=wrap;html=1;fillColor=#fff2cc;strokeColor=#d6b656;" vertex="1" parent="WIyWlLk6GJQsqaUBKTNV-1">
          <mxGeometry x="340" y="380" width="120" height="60" as="geometry" />
        </mxCell>
        <mxCell id="CkBGdMIkpj1YnCWoiwxH-58" style="edgeStyle=orthogonalEdgeStyle;rounded=0;orthogonalLoop=1;jettySize=auto;html=1;exitX=0.5;exitY=1;exitDx=0;exitDy=0;entryX=0.5;entryY=0;entryDx=0;entryDy=0;" edge="1" parent="WIyWlLk6GJQsqaUBKTNV-1" source="CkBGdMIkpj1YnCWoiwxH-33" target="CkBGdMIkpj1YnCWoiwxH-36">
          <mxGeometry relative="1" as="geometry" />
        </mxCell>
        <mxCell id="CkBGdMIkpj1YnCWoiwxH-33" value="next round" style="rounded=0;whiteSpace=wrap;html=1;fillColor=#fff2cc;strokeColor=#d6b656;" vertex="1" parent="WIyWlLk6GJQsqaUBKTNV-1">
          <mxGeometry x="340" y="620" width="120" height="60" as="geometry" />
        </mxCell>
        <mxCell id="CkBGdMIkpj1YnCWoiwxH-61" style="edgeStyle=orthogonalEdgeStyle;rounded=0;orthogonalLoop=1;jettySize=auto;html=1;exitX=0.5;exitY=1;exitDx=0;exitDy=0;entryX=0;entryY=0.5;entryDx=0;entryDy=0;" edge="1" parent="WIyWlLk6GJQsqaUBKTNV-1" source="CkBGdMIkpj1YnCWoiwxH-35" target="CkBGdMIkpj1YnCWoiwxH-60">
          <mxGeometry relative="1" as="geometry" />
        </mxCell>
        <mxCell id="CkBGdMIkpj1YnCWoiwxH-35" value="&lt;font face=&quot;Helvetica&quot;&gt;&lt;br&gt;&lt;span style=&quot;font-size: 14px; font-style: normal; font-variant-ligatures: normal; font-variant-caps: normal; font-weight: 400; letter-spacing: normal; orphans: 2; text-align: left; text-indent: 0px; text-transform: none; widows: 2; word-spacing: 0px; -webkit-text-stroke-width: 0px; text-decoration-thickness: initial; text-decoration-style: initial; text-decoration-color: initial; float: none; display: inline !important;&quot;&gt;If player&#39;s hand has a total of 17 or higher:&lt;br&gt;    Stand&lt;/span&gt;&lt;/font&gt;" style="rounded=0;whiteSpace=wrap;html=1;fillColor=#fff2cc;strokeColor=#d6b656;" vertex="1" parent="WIyWlLk6GJQsqaUBKTNV-1">
          <mxGeometry x="130" y="755" width="150" height="70" as="geometry" />
        </mxCell>
        <mxCell id="CkBGdMIkpj1YnCWoiwxH-41" style="edgeStyle=orthogonalEdgeStyle;rounded=0;orthogonalLoop=1;jettySize=auto;html=1;exitX=0;exitY=0.5;exitDx=0;exitDy=0;entryX=1;entryY=0.5;entryDx=0;entryDy=0;" edge="1" parent="WIyWlLk6GJQsqaUBKTNV-1" source="CkBGdMIkpj1YnCWoiwxH-36" target="CkBGdMIkpj1YnCWoiwxH-35">
          <mxGeometry relative="1" as="geometry" />
        </mxCell>
        <mxCell id="CkBGdMIkpj1YnCWoiwxH-42" style="edgeStyle=orthogonalEdgeStyle;rounded=0;orthogonalLoop=1;jettySize=auto;html=1;exitX=1;exitY=0.5;exitDx=0;exitDy=0;entryX=0;entryY=0.5;entryDx=0;entryDy=0;" edge="1" parent="WIyWlLk6GJQsqaUBKTNV-1" source="CkBGdMIkpj1YnCWoiwxH-36" target="CkBGdMIkpj1YnCWoiwxH-39">
          <mxGeometry relative="1" as="geometry" />
        </mxCell>
        <mxCell id="CkBGdMIkpj1YnCWoiwxH-36" value="10-value card" style="rhombus;whiteSpace=wrap;html=1;fillColor=#d5e8d4;strokeColor=#82b366;" vertex="1" parent="WIyWlLk6GJQsqaUBKTNV-1">
          <mxGeometry x="343.75" y="740" width="112.5" height="100" as="geometry" />
        </mxCell>
        <mxCell id="CkBGdMIkpj1YnCWoiwxH-62" style="edgeStyle=orthogonalEdgeStyle;rounded=0;orthogonalLoop=1;jettySize=auto;html=1;exitX=0.5;exitY=1;exitDx=0;exitDy=0;entryX=1;entryY=0.5;entryDx=0;entryDy=0;" edge="1" parent="WIyWlLk6GJQsqaUBKTNV-1" source="CkBGdMIkpj1YnCWoiwxH-39" target="CkBGdMIkpj1YnCWoiwxH-60">
          <mxGeometry relative="1" as="geometry" />
        </mxCell>
        <mxCell id="CkBGdMIkpj1YnCWoiwxH-39" value="&lt;font face=&quot;Helvetica&quot;&gt;&lt;span style=&quot;font-size: 14px; font-style: normal; font-variant-ligatures: normal; font-variant-caps: normal; font-weight: 400; letter-spacing: normal; orphans: 2; text-align: left; text-indent: 0px; text-transform: none; widows: 2; word-spacing: 0px; -webkit-text-stroke-width: 0px; text-decoration-thickness: initial; text-decoration-style: initial; text-decoration-color: initial; float: none; display: inline !important;&quot;&gt;Keep hitting until you get 17&lt;br&gt;&lt;/span&gt;&lt;/font&gt;" style="rounded=0;whiteSpace=wrap;html=1;fillColor=#fff2cc;strokeColor=#d6b656;" vertex="1" parent="WIyWlLk6GJQsqaUBKTNV-1">
          <mxGeometry x="510" y="755" width="150" height="70" as="geometry" />
        </mxCell>
        <mxCell id="CkBGdMIkpj1YnCWoiwxH-51" value="cards revealed" style="rhombus;whiteSpace=wrap;html=1;fillColor=#d5e8d4;strokeColor=#82b366;" vertex="1" parent="WIyWlLk6GJQsqaUBKTNV-1">
          <mxGeometry x="340" y="265" width="120" height="70" as="geometry" />
        </mxCell>
        <mxCell id="CkBGdMIkpj1YnCWoiwxH-57" style="edgeStyle=orthogonalEdgeStyle;rounded=0;orthogonalLoop=1;jettySize=auto;html=1;exitX=0.5;exitY=1;exitDx=0;exitDy=0;entryX=0.5;entryY=0;entryDx=0;entryDy=0;" edge="1" parent="WIyWlLk6GJQsqaUBKTNV-1" source="CkBGdMIkpj1YnCWoiwxH-55" target="CkBGdMIkpj1YnCWoiwxH-51">
          <mxGeometry relative="1" as="geometry" />
        </mxCell>
        <mxCell id="CkBGdMIkpj1YnCWoiwxH-55" value="receive cards" style="rounded=0;whiteSpace=wrap;html=1;fillColor=#fff2cc;strokeColor=#d6b656;" vertex="1" parent="WIyWlLk6GJQsqaUBKTNV-1">
          <mxGeometry x="336.25" y="190" width="120" height="60" as="geometry" />
        </mxCell>
        <mxCell id="CkBGdMIkpj1YnCWoiwxH-84" style="edgeStyle=orthogonalEdgeStyle;rounded=0;orthogonalLoop=1;jettySize=auto;html=1;exitX=0.5;exitY=1;exitDx=0;exitDy=0;entryX=0.5;entryY=0;entryDx=0;entryDy=0;" edge="1" parent="WIyWlLk6GJQsqaUBKTNV-1" source="CkBGdMIkpj1YnCWoiwxH-60" target="CkBGdMIkpj1YnCWoiwxH-65">
          <mxGeometry relative="1" as="geometry" />
        </mxCell>
        <mxCell id="CkBGdMIkpj1YnCWoiwxH-60" value="Repeat the tips for next rounds" style="rounded=0;whiteSpace=wrap;html=1;fillColor=#fff2cc;strokeColor=#d6b656;" vertex="1" parent="WIyWlLk6GJQsqaUBKTNV-1">
          <mxGeometry x="343.75" y="880" width="120" height="60" as="geometry" />
        </mxCell>
        <mxCell id="CkBGdMIkpj1YnCWoiwxH-69" style="edgeStyle=orthogonalEdgeStyle;rounded=0;orthogonalLoop=1;jettySize=auto;html=1;exitX=0;exitY=0.5;exitDx=0;exitDy=0;" edge="1" parent="WIyWlLk6GJQsqaUBKTNV-1" source="CkBGdMIkpj1YnCWoiwxH-65">
          <mxGeometry relative="1" as="geometry">
            <mxPoint x="320" y="1020" as="targetPoint" />
          </mxGeometry>
        </mxCell>
        <mxCell id="CkBGdMIkpj1YnCWoiwxH-85" style="edgeStyle=orthogonalEdgeStyle;rounded=0;orthogonalLoop=1;jettySize=auto;html=1;exitX=0.5;exitY=1;exitDx=0;exitDy=0;entryX=0.5;entryY=0;entryDx=0;entryDy=0;" edge="1" parent="WIyWlLk6GJQsqaUBKTNV-1" source="CkBGdMIkpj1YnCWoiwxH-65" target="CkBGdMIkpj1YnCWoiwxH-68">
          <mxGeometry relative="1" as="geometry" />
        </mxCell>
        <mxCell id="CkBGdMIkpj1YnCWoiwxH-65" value="Win % went&lt;br&gt;up" style="rhombus;whiteSpace=wrap;html=1;fillColor=#d5e8d4;strokeColor=#82b366;" vertex="1" parent="WIyWlLk6GJQsqaUBKTNV-1">
          <mxGeometry x="360.63" y="980" width="86.25" height="80" as="geometry" />
        </mxCell>
        <mxCell id="CkBGdMIkpj1YnCWoiwxH-83" style="edgeStyle=orthogonalEdgeStyle;rounded=0;orthogonalLoop=1;jettySize=auto;html=1;exitX=0.5;exitY=1;exitDx=0;exitDy=0;entryX=0.5;entryY=0;entryDx=0;entryDy=0;" edge="1" parent="WIyWlLk6GJQsqaUBKTNV-1" source="CkBGdMIkpj1YnCWoiwxH-68" target="CkBGdMIkpj1YnCWoiwxH-74">
          <mxGeometry relative="1" as="geometry" />
        </mxCell>
        <mxCell id="CkBGdMIkpj1YnCWoiwxH-68" value="Go home" style="rounded=0;whiteSpace=wrap;html=1;fillColor=#fff2cc;strokeColor=#d6b656;" vertex="1" parent="WIyWlLk6GJQsqaUBKTNV-1">
          <mxGeometry x="343.75" y="1080" width="120" height="60" as="geometry" />
        </mxCell>
        <mxCell id="CkBGdMIkpj1YnCWoiwxH-76" style="edgeStyle=orthogonalEdgeStyle;rounded=0;orthogonalLoop=1;jettySize=auto;html=1;exitX=0.5;exitY=1;exitDx=0;exitDy=0;entryX=0.5;entryY=0;entryDx=0;entryDy=0;" edge="1" parent="WIyWlLk6GJQsqaUBKTNV-1" source="CkBGdMIkpj1YnCWoiwxH-70" target="CkBGdMIkpj1YnCWoiwxH-75">
          <mxGeometry relative="1" as="geometry" />
        </mxCell>
        <mxCell id="CkBGdMIkpj1YnCWoiwxH-70" value="Keep playing" style="rounded=0;whiteSpace=wrap;html=1;fillColor=#fff2cc;strokeColor=#d6b656;" vertex="1" parent="WIyWlLk6GJQsqaUBKTNV-1">
          <mxGeometry x="200" y="990" width="120" height="60" as="geometry" />
        </mxCell>
        <mxCell id="CkBGdMIkpj1YnCWoiwxH-74" value="End" style="ellipse;whiteSpace=wrap;html=1;fillColor=#dae8fc;strokeColor=#6c8ebf;" vertex="1" parent="WIyWlLk6GJQsqaUBKTNV-1">
          <mxGeometry x="343.75" y="1170" width="120" height="80" as="geometry" />
        </mxCell>
        <mxCell id="CkBGdMIkpj1YnCWoiwxH-80" style="edgeStyle=orthogonalEdgeStyle;rounded=0;orthogonalLoop=1;jettySize=auto;html=1;exitX=1;exitY=0.5;exitDx=0;exitDy=0;" edge="1" parent="WIyWlLk6GJQsqaUBKTNV-1" source="CkBGdMIkpj1YnCWoiwxH-75">
          <mxGeometry relative="1" as="geometry">
            <mxPoint x="340" y="1110" as="targetPoint" />
          </mxGeometry>
        </mxCell>
        <mxCell id="CkBGdMIkpj1YnCWoiwxH-75" value="Tired" style="rounded=0;whiteSpace=wrap;html=1;fillColor=#fff2cc;strokeColor=#d6b656;" vertex="1" parent="WIyWlLk6GJQsqaUBKTNV-1">
          <mxGeometry x="200" y="1080" width="120" height="60" as="geometry" />
        </mxCell>
      </root>
    </mxGraphModel>
  </diagram>
</mxfile>
